# xmcd CD database file
#
# Track frame offsets:
#	150
#	15332
#	36202
#	55967
#	75510
#	93327
#	115497
#	135032
#	151405
#	170045
#	184525
#	202957
#	219105
#	233295
#	248497
#
# Disc length: 3356 seconds
#
# Revision: 6
# Processed by: cddbd v1.5.2PL0 Copyright (c) Steve Scherf et al.
# Submitted via: CDex 1.50Beta7
#
DISCID=a80d1a0f
DTITLE=Gunter Gabriel - Gunterwegs
DYEAR=2002
DGENRE=Country
TTITLE0=Mein Laster ist mein Laster
TTITLE1=Komm mit mir auf Tour
TTITLE2=Warum Benz Mercedes heißt
TTITLE3=Ein Stückchen pro Tag
TTITLE4=Es war nicht alles schlecht (was früher einmal gut war)
TTITLE5=Nimm mich wie ich bin (sonst laß mich gehn)
TTITLE6=Wer einmal tief im Keller saß
TTITLE7=Goldstück
TTITLE8=Seine Straßen
TTITLE9=Köhlbrandbrücke (Hamburgs coolste Brücke)
TTITLE10=Von Santa Fu bis Hamburg City
TTITLE11=Freund aller Fahrer (Dieselmann)
TTITLE12=Harald's Denkmal (Ich will einmal nur mit Harald Juhnke einen trinken gehen)
TTITLE13=Gefangene der Straße
TTITLE14=Ausklang
EXTD=(c)2002 Bear Family Records Germany, upc 4000127166265\n YEAR: 2002
EXTT0=
EXTT1=
EXTT2=
EXTT3=[One Piece At A Time/Johnny Cash]
EXTT4=
EXTT5=[Take Me As I Am/Bobby Bare]
EXTT6=
EXTT7=
EXTT8=
EXTT9=
EXTT10=
EXTT11=
EXTT12=
EXTT13=
EXTT14=
PLAYORDER=
